<svg version="1" xmlns="http://www.w3.org/2000/svg" width="1654.667" height="1654.667" viewBox="0 0 1241.000000 1241.000000"><path d="M0 620.5V1241h1241V0H0v620.5zm662-254.9c24.2 2.8 49.9 10.1 66.8 18.8l8.2 4.3V367l5.3.1c2.8.1 16.2.6 29.6 1.3l24.3 1.1-.1 51c0 28-.4 62-.8 75.4l-.6 24.3-7.1-.6c-3.9-.3-16.1-.8-27.1-1.1-11-.3-22.6-.8-25.8-1.1l-5.7-.6v-38.7-41.3c0-2.3-1.3-3.7-7.2-7.9-20.6-14.5-42.4-21.4-67.8-21.3-10.8 0-15 .4-21 2.1-27.6 7.9-50.9 27.2-58.9 48.6-8.5 23 1.8 48.7 26.7 66.4 5.1 3.7 38.2 20.6 54.2 27.8 31 13.9 62.9 31.8 81.7 45.8 12.6 9.5 30.9 27.3 37.6 36.9 6.2 8.7 11.2 19.6 13.9 30.5 2 7.7 2.2 11.4 2.2 28.8-.1 28.6-3.4 44.5-13.5 64.7-9.4 18.8-23.7 33.6-40.8 42.2-15.1 7.7-40.7 15.2-61.6 18.2-9.3 1.3-16.1 1.5-30.5 1.1-28.3-.9-48-4.6-69-13l-10.5-4.2-31 4.6c-17.1 2.5-31.1 4.5-31.2 4.4-.4-.2-15.3-142.8-15-143 .6-.5 65.1-13.5 65.3-13.2.2.2 1.5 10.2 2.9 22.3 1.4 12 3.5 29.1 4.5 37.8 1.1 8.8 2 16.1 2 16.1 0 .1 3.7 3.1 8.3 6.7 18.3 14.5 39.6 26.1 57.7 31.5 8.5 2.5 11 2.8 23.5 2.8 13.2-.1 14.5-.2 22-3.1 13.1-5 21.8-11.3 30.4-21.9 6.4-7.9 11.2-16.2 14.7-25.5 2.4-6.6 2.8-9 2.8-19 .1-9.6-.3-12.7-2.3-18.9-3.1-9.5-10-19.8-19.4-29-15.9-15.7-32.5-25-74.7-41.9-66-26.5-86.2-38.1-103.3-59.3-15.7-19.4-23.7-46.4-23.7-80.2 0-42.4 20.2-76.1 57-95.1 15.4-7.9 34.9-13.5 54.5-15.6 10.3-1.1 36.6-.3 52.5 1.6zm344 12.9c66.4 6.8 110.9 22.4 136.6 48 11.8 11.8 16 22.7 17 44 1.7 35-8.9 65.8-29.6 86.6-13.1 13-24.6 19.3-50.9 27.5-.8.3 4.4 2.5 11.7 4.9 34.4 11.5 51.8 24.7 63.6 48.4 8.2 16.3 11.7 30.9 13.6 57.1 2.6 35.4-4.4 57.4-24.7 77.5-25.4 25.2-70.8 39.1-141.8 43.6-22.9 1.4-87.3.6-123.5-1.6-13.5-.8-25.9-1.5-27.6-1.5h-3l-2.8-20.8c-1.6-11.4-3.1-21.9-3.3-23.5l-.5-2.7h67.5l-.7-169.8c-.4-93.3-1-169.9-1.3-170.2-.2-.3-11.8-1-25.6-1.5l-25.2-1-.7-10.5c-.3-5.8-.8-16.1-1-22.9l-.4-12.3 32 .2c18 .1 36.1-.2 41.1-.8 12.3-1.4 60.4-.7 79.5 1.3zm-841.8.4c.7.6 12.3 22.9 79.4 152.3 8.7 16.9 16.2 30.8 16.7 30.8 1.2 0 8.8-12.5 45.4-75 43.8-74.7 58.7-99.7 61.6-103.3l2.2-2.8L409 379c21.7-1.1 40.7-2 42.1-2h2.6l.8 25.1c.4 13.7.5 25.2.2 25.5-.3.3-9.2 2-19.8 3.7l-19.4 3.3-.6 33.9c-.4 18.7-.9 57.2-1.3 85.5-1.5 128.8-1.8 144.6-2.2 145.8-.2.7-.4 14.8-.4 31.5l-.1 30.2 16.8 4.7c9.2 2.6 18.6 5.3 20.7 5.9l3.9 1.1-.6 19c-.4 10.5-.8 19.3-1.1 19.5-.5.5-147.9-2.7-148.5-3.3-.6-.6 2.6-37.4 3.3-38.1.3-.3 11.5-3.1 24.8-6.3l24.3-5.7.6-8.4c.4-4.6.9-34.3 1.3-65.9.3-31.6.8-67 1.1-78.5.3-11.6.7-40.1 1.1-63.5.5-37.3.4-42.3-.9-40.5-3.8 5.3-16.7 29.3-41.2 77-32.3 62.8-52.4 99.5-54.4 99.5-2.6 0-79.3-144.4-91.9-173-.9-2.1-1.1-.8-1.2 7-.1 5.2-.3 11.5-.5 14s-.6 30.6-.9 62.5c-.4 31.9-.9 63.8-1.1 71-.2 7.1-.7 33.1-1.1 57.7l-.6 44.7 3.8.9c2.2.6 13.1 3.2 24.3 5.9l20.3 4.8-.7 19.5c-.4 10.7-.7 19.5-.8 19.6-1.2.4-147.8-3.4-148.3-3.9-.7-.6 1.1-30.2 2.2-35.8.5-2.4 1.6-2.9 22-8.4 11.9-3.2 21.7-6.3 21.9-6.9.2-.6.6-38 .9-83.1.3-45.1.8-99.1 1.1-120 .3-20.9.7-57 1-80.1l.6-42.2-4.3-.5c-2.4-.4-13.2-1.4-24-2.3-10.9-1-20.2-2-20.8-2.4-.9-.5.2-34.7 1.6-45.5l.4-4 48.8.3c26.8.2 49 .7 49.4 1.1z"/><path d="M961.4 416.1c-.6 1-.3 27 1.2 116.2l.7 35.9 11.1-.7c35.3-2 63.2-8.5 88.2-20.5 23.6-11.4 38.7-27.6 46.5-50 1.9-5.4 2.3-8.7 2.3-19.5.1-11.7-.1-13.5-2.2-17.7-9.5-19.3-53.6-37.6-104.3-43.3-16-1.8-42.5-2-43.5-.4zM962 689.2v75.5l5.8.7c36.7 4.1 69.2 2.1 96-6 23.5-7.1 36.3-16.6 45.5-33.4 5.3-9.7 6.9-16.6 6.9-29.2 0-10.2-.2-11.3-3.1-17.2-11-22.4-61.6-50.7-111.1-62.2-8.4-1.9-15.3-2.8-25.7-3.2l-14.3-.5v75.5z"/></svg>